<svg version="1.2" xmlns="http://www.w3.org/2000/svg" viewBox="0 0 450 450" width="450" height="450">
	<title>farlonger-svg</title>
	<style>
		.s0 { fill: #855dcd } 
		.s1 { fill: #ffffff } 
	</style>
	<g id="Pasta 1">
		<path id="Layer" class="s0" d="m0 53c0-27.6 22.4-50 50-50h350c27.6 0 50 22.4 50 50v344c0 27.6-22.4 50-50 50h-350c-27.6 0-50-22.4-50-50z"/>
		<path id="Layer" class="s1" d="m161.4 43.9h128.6v359.4h-18.9v-164.6h-0.1c-2.1-45.6-21.6-81.2-45.3-81.2-23.7 0-43.1 35.6-45.3 81.2h-0.1v164.6h-18.9z"/>
		<path id="Layer" class="s1" d="m120 65l8.1 56.4h6.9v228.3q-1.3 0-2.4 1-1.2 1-2 2.7-0.9 1.8-1.3 4.2c-0.4 1.6-0.6 3.3-0.6 5v15.3h-1.1q-1.3 0-2.5 1-1.1 1-2 2.7-1 1.8-1.4 4.2c-0.3 1.6-0.4 3.3-0.4 5v15.3h70v-15.3c0-1.7-0.2-3.4-0.4-5q-0.6-2.4-1.5-4.2-0.8-1.7-2-2.7-1.1-1-2.4-1h-1.1v-15.3c0-1.7-0.3-3.4-0.6-5q-0.4-2.4-1.3-4.2-0.9-1.7-2-2.7-1.1-1-2.4-1h-7.6v-284.7zm153.9 284.7q-1.2 0-2.3 1-1.2 1-2.2 2.7-0.8 1.8-1.3 4.2c-0.2 1.6-0.4 3.3-0.4 5v15.3h-1.3q-1.3 0-2.4 1-1.1 1-2 2.7-0.9 1.8-1.4 4.2c-0.3 1.6-0.5 3.3-0.5 5v15.3h70.2v-15.3c0-1.7-0.3-3.4-0.6-5q-0.4-2.4-1.3-4.2-0.8-1.7-2-2.7-1.3-1-2.4-1h-1.3v-15.3c0-1.7-0.1-3.4-0.4-5q-0.6-2.4-1.4-4.2-0.9-1.7-2-2.7-1.2-1-2.5-1v-228.3h6.9l8.1-56.4h-50v284.7z"/>
	</g>
</svg>